<svg id="Ebene_1" data-name="Ebene 1" xmlns="http://www.w3.org/2000/svg" xmlns:xlink="http://www.w3.org/1999/xlink" viewBox="0 0 497.57 296.16"><defs><style>.cls-1{fill:url(#Unbenannter_Verlauf_3);}.cls-2{fill:#04a547;}.cls-3{fill:url(#Unbenannter_Verlauf_3-2);}.cls-4{fill:url(#Unbenannter_Verlauf_3-3);}.cls-5{fill:url(#Unbenannter_Verlauf_3-4);}.cls-6{fill:url(#Unbenannter_Verlauf_3-5);}.cls-7{fill:url(#Unbenannter_Verlauf_3-6);}.cls-8{fill:url(#Unbenannter_Verlauf_3-7);}.cls-9{fill:url(#Unbenannter_Verlauf_3-8);}.cls-10{fill:url(#Unbenannter_Verlauf_3-9);}.cls-11{fill:url(#Unbenannter_Verlauf_3-10);}</style><linearGradient id="Unbenannter_Verlauf_3" x1="-92.44" y1="236.6" x2="490.02" y2="-58.45" gradientUnits="userSpaceOnUse"><stop offset="0" stop-color="#04c956"/><stop offset="1" stop-color="#61ff7e"/></linearGradient><linearGradient id="Unbenannter_Verlauf_3-2" x1="-44.19" y1="331.85" x2="538.27" y2="36.8" xlink:href="#Unbenannter_Verlauf_3"/><linearGradient id="Unbenannter_Verlauf_3-3" x1="-32.47" y1="354.99" x2="550" y2="59.94" xlink:href="#Unbenannter_Verlauf_3"/><linearGradient id="Unbenannter_Verlauf_3-4" x1="-27.05" y1="365.69" x2="555.42" y2="70.64" xlink:href="#Unbenannter_Verlauf_3"/><linearGradient id="Unbenannter_Verlauf_3-5" x1="-16.66" y1="386.2" x2="565.8" y2="91.15" xlink:href="#Unbenannter_Verlauf_3"/><linearGradient id="Unbenannter_Verlauf_3-6" x1="-8.21" y1="402.87" x2="574.25" y2="107.82" xlink:href="#Unbenannter_Verlauf_3"/><linearGradient id="Unbenannter_Verlauf_3-7" x1="2.28" y1="423.58" x2="584.74" y2="128.53" xlink:href="#Unbenannter_Verlauf_3"/><linearGradient id="Unbenannter_Verlauf_3-8" x1="11.66" y1="442.1" x2="594.12" y2="147.05" xlink:href="#Unbenannter_Verlauf_3"/><linearGradient id="Unbenannter_Verlauf_3-9" x1="21.41" y1="461.34" x2="603.87" y2="166.29" xlink:href="#Unbenannter_Verlauf_3"/><linearGradient id="Unbenannter_Verlauf_3-10" x1="27.09" y1="472.56" x2="609.55" y2="177.51" xlink:href="#Unbenannter_Verlauf_3"/></defs><title>logo</title><path class="cls-1" d="M181.85,47.17A92.37,92.37,0,0,0,176.3,39a97.82,97.82,0,0,0-20.36-20.07,99,99,0,0,0-8.44-5.55,98.13,98.13,0,0,0-99.56.37,95.47,95.47,0,0,0-8.66,5.81A97.94,97.94,0,0,0,0,98V231.32l65.1,64.84H87.49A10.66,10.66,0,0,0,98,287.28V196a97.57,97.57,0,0,0,50.34-13.89q4-2.4,7.73-5.15A97.56,97.56,0,0,0,177,156.05q2.76-3.72,5.15-7.71h0a98,98,0,0,0-.32-101.16ZM98,121.45A23.44,23.44,0,1,1,121.45,98,23.45,23.45,0,0,1,98,121.45Z"/><path class="cls-2" d="M0,231.18H54.33A10.67,10.67,0,0,1,65,241.85l.11,54.31Z"/><path class="cls-3" d="M121,226.38c0-2.26,1.19-3.45,3.45-3.45h15.21c8.74,0,14.65,6.41,14.65,15.46S148.39,254,139.65,254H132V264.4c0,2.27-1.2,3.46-3.46,3.46h-4.09c-2.26,0-3.45-1.19-3.45-3.46Zm16.4,18.17c3.83,0,5.72-2.58,5.72-6.16s-1.89-6-5.53-6H132v12.2Z"/><path class="cls-4" d="M170.19,225.75a3.69,3.69,0,0,1,3.9-2.82h5.65a3.69,3.69,0,0,1,3.9,2.82l13,38.15c.82,2.39-.32,4-2.83,4h-4.15a3.72,3.72,0,0,1-3.89-2.89l-1.89-6.54h-14L168,265a3.61,3.61,0,0,1-3.83,2.89H160c-2.51,0-3.65-1.57-2.83-4Zm11.12,23.89-2.51-8.74c-.82-2.83-1.82-7.73-1.82-7.73h-.13s-1,4.9-1.82,7.73l-2.58,8.74Z"/><path class="cls-5" d="M204.94,226.38c0-2.26,1.19-3.45,3.45-3.45H223.6c8.74,0,14.65,6.41,14.65,15.46S232.34,254,223.6,254h-7.66V264.4c0,2.27-1.2,3.46-3.46,3.46h-4.09c-2.26,0-3.45-1.19-3.45-3.46Zm16.4,18.17c3.83,0,5.72-2.58,5.72-6.16s-1.89-6-5.53-6h-5.59v12.2Z"/><path class="cls-6" d="M246.79,226.38c0-2.26,1.19-3.45,3.45-3.45h21.25c2.26,0,3.45,1.19,3.45,3.45v2.52c0,2.26-1.19,3.45-3.45,3.45h-13.7v8.17H268a3.1,3.1,0,0,1,3.46,3.46v2.51c0,2.27-1.2,3.46-3.46,3.46H257.79v8.48h14.58c2.26,0,3.45,1.2,3.45,3.46v2.51c0,2.27-1.19,3.46-3.45,3.46H250.24c-2.26,0-3.45-1.19-3.45-3.46Z"/><path class="cls-7" d="M285.12,226.38c0-2.26,1.19-3.45,3.45-3.45h12.2c4.58,0,6.78.31,8.73,1.07,5.09,1.94,8.3,6.53,8.3,13.07,0,4.77-2.26,10-6.73,12.25v.13a24.76,24.76,0,0,1,1.7,2.7l6.41,11.56c1.38,2.39.31,4.15-2.39,4.15H312a4.26,4.26,0,0,1-4.09-2.45l-6.66-12.7h-5.15V264.4c0,2.27-1.2,3.46-3.46,3.46h-4.09c-2.26,0-3.45-1.19-3.45-3.46Zm15.77,16.91c3.52,0,5.72-1.95,5.72-5.53,0-2.26-.57-4-2.64-4.78a10.41,10.41,0,0,0-4.15-.63h-3.7v10.94Z"/><path class="cls-8" d="M349.34,222.17c7.16,0,12.76,2.64,14.58,4s2.07,2.83.88,4.78l-1.63,2.57c-1.2,1.89-2.71,2-4.78,1a16.61,16.61,0,0,0-8.36-2.2c-9,0-12.94,6-12.94,12.82,0,8.29,5.9,13.51,12.75,13.51,6.41,0,9.24-3.65,9.24-3.65v-3.07h-2.89a3.1,3.1,0,0,1-3.46-3.46v-2.45a3.1,3.1,0,0,1,3.46-3.46h9.18c2.26,0,3.45,1.2,3.45,3.46V264.4c0,2.27-1.19,3.46-3.45,3.46h-2.08c-2.26,0-3.45-1.19-3.45-2.7V265a3.09,3.09,0,0,1,.06-.63h-.13s-4,4.21-11.94,4.21c-11.56,0-22.12-8.79-22.12-22.93C325.71,232,335.58,222.17,349.34,222.17Z"/><path class="cls-9" d="M400.05,222.17c13.95,0,23.5,10.06,23.5,22.94,0,13.2-9.55,23.5-23.5,23.5s-23.5-10.3-23.5-23.5C376.55,232.23,386.1,222.17,400.05,222.17Zm0,36.39c7.1,0,12.13-5.78,12.13-13.45,0-7.35-5-12.88-12.13-12.88s-12.13,5.53-12.13,12.88C387.92,252.78,393,258.56,400.05,258.56Z"/><path class="cls-10" d="M433,226.38c0-2.26,1.19-3.45,3.45-3.45h4.09c2.26,0,3.45,1.19,3.45,3.45v32.05h14.9c2.26,0,3.45,1.2,3.45,3.46v2.51c0,2.27-1.19,3.46-3.45,3.46H436.49c-2.26,0-3.45-1.19-3.45-3.46Z"/><path class="cls-11" d="M470.05,226.38c0-2.26,1.19-3.45,3.45-3.45h20.62c2.26,0,3.45,1.19,3.45,3.45v2.52c0,2.26-1.19,3.45-3.45,3.45H481v9.43h10.25c2.26,0,3.46,1.19,3.46,3.46v2.51a3.1,3.1,0,0,1-3.46,3.46H481V264.4c0,2.27-1.19,3.46-3.45,3.46H473.5c-2.26,0-3.45-1.19-3.45-3.46Z"/></svg>