<svg id="Ebene_1" data-name="Ebene 1" xmlns="http://www.w3.org/2000/svg" xmlns:xlink="http://www.w3.org/1999/xlink" viewBox="0 0 196.07 296.16"><defs><style>.cls-1{fill:url(#Unbenannter_Verlauf_3);}.cls-2{fill:#04a547;}</style><linearGradient id="Unbenannter_Verlauf_3" x1="-92.44" y1="236.6" x2="490.02" y2="-58.45" gradientUnits="userSpaceOnUse"><stop offset="0" stop-color="#04c956"/><stop offset="1" stop-color="#61ff7e"/></linearGradient></defs><title>logo-mobile</title><path class="cls-1" d="M181.85,47.17A92.37,92.37,0,0,0,176.3,39a97.82,97.82,0,0,0-20.36-20.07,99,99,0,0,0-8.44-5.55,98.13,98.13,0,0,0-99.56.37,95.47,95.47,0,0,0-8.66,5.81A97.94,97.94,0,0,0,0,98V231.32l65.1,64.84H87.49A10.66,10.66,0,0,0,98,287.28V196a97.57,97.57,0,0,0,50.34-13.89q4-2.4,7.73-5.15A97.56,97.56,0,0,0,177,156.05q2.76-3.72,5.15-7.71h0a98,98,0,0,0-.32-101.16ZM98,121.45A23.44,23.44,0,1,1,121.45,98,23.45,23.45,0,0,1,98,121.45Z"/><path class="cls-2" d="M0,231.18H54.33A10.67,10.67,0,0,1,65,241.85l.11,54.31Z"/></svg>