<svg id="Ebene_1" data-name="Ebene 1" xmlns="http://www.w3.org/2000/svg" viewBox="0 0 393.07 512"><defs><style>.cls-1{fill:#ebebeb;}.cls-2{fill:#e1e1e1;}.cls-3{fill:#04c956;}</style></defs><title>pdf-icon</title><path class="cls-1" d="M393.07,86.68V481.76A30.23,30.23,0,0,1,362.83,512H30.24A30.24,30.24,0,0,1,0,481.76V30.24A30.24,30.24,0,0,1,30.24,0H306.39Z"/><path class="cls-2" d="M393.07,86.68H331.88a25.49,25.49,0,0,1-25.49-25.49V0Z"/><path class="cls-3" d="M204,186.67c-.65,13-4.3,26.5-9,39.78-1.3,3.69-1.18,6.52,1,10a162.12,162.12,0,0,0,31.84,36.7,9.3,9.3,0,0,0,5.54,1.88,206.59,206.59,0,0,1,48.22,5.79c8,2,13.45,6.84,15.13,15.06,1.42,7-3,15.68-9.53,19.65-5.76,3.49-11.83,3.35-17.58.3a260.63,260.63,0,0,1-41.26-26.58,10,10,0,0,0-6.18-2.13,186,186,0,0,0-58.58,12.44,9.24,9.24,0,0,0-4,3.73c-8.57,14-17,28-25.46,42-.39.66-.86,1.28-1.21,2-6.06,11.78-22.66,9.92-29.18,3.26-10.54-10.77-10.48-26.21,2.11-34.75C118.68,307,131.89,299,146.21,293a14.4,14.4,0,0,0,8.16-7.45c7.82-16.67,15.82-33.25,23.83-49.82,1.25-2.59.88-4.75-.37-7.23-6.13-12.17-10.94-24.82-12.93-38.36-1.16-8-.75-15.82,2.77-23.28,5.63-11.94,18.31-14.22,27.71-4.88C201.88,168.42,204,176.53,204,186.67Zm6,87.53-23.33-28.38-17.5,36.78Zm-26.43-60.67,1.18-.25a6.18,6.18,0,0,0,1-1.6c1.64-6.82,3.43-13.62,4.78-20.5,1.15-5.83,1.39-11.89-1.69-17.17-1.45-2.5-4.49-4.09-6.8-6.09-1.67,2.25-4,4.27-4.87,6.79-2,6.1-1.34,12.4.42,18.52C179.51,200,181.57,206.77,183.58,213.53Zm-44.36,96.75L138.13,309c-8.54,5.53-17.14,11-25.61,16.6-6.7,4.44-4.29,11.87.35,16,2.79,2.47,6.46,1.74,8.45-1.51q8.13-13.24,16.14-26.55C138.1,312.48,138.63,311.36,139.22,310.28Zm108.53-23.42c.17.91.13,1.28.27,1.36,9,5.48,18,11,27.17,16.28,1.05.61,3.72.15,4.43-.76,1.65-2.09,3.57-4.82,3.41-7.17-.1-1.65-3.22-3.86-5.38-4.47a175.06,175.06,0,0,0-17.52-3.65C256.1,287.74,252,287.39,247.75,286.86Z"/></svg>