<svg id="Ebene_1" data-name="Ebene 1" xmlns="http://www.w3.org/2000/svg" viewBox="0 0 500 297.17"><defs><style>.cls-1{fill:#04c956;}.cls-2{fill:#868e96;}</style></defs><title>turn-phone</title><path class="cls-1" d="M143.18,297.17H32.2C14.44,297.17,0,280.25,0,259.45V37.72C0,16.92,14.44,0,32.2,0h111c17.76,0,32.2,16.92,32.2,37.72V259.45C175.38,280.25,160.94,297.17,143.18,297.17ZM32.2,20C25.59,20,20,28.11,20,37.72V259.45c0,9.6,5.59,17.72,12.2,17.72h111c6.61,0,12.2-8.12,12.2-17.72V37.72c0-9.61-5.59-17.72-12.2-17.72Z"/><path class="cls-1" d="M87.69,241.73a9.85,9.85,0,0,1-2-.2,9.39,9.39,0,0,1-1.87-.57,9.87,9.87,0,0,1-1.73-.92,9.72,9.72,0,0,1-2.76-2.76,9.87,9.87,0,0,1-.92-1.73,9.39,9.39,0,0,1-.57-1.87,9.85,9.85,0,0,1-.2-2,10,10,0,0,1,.2-2,9.81,9.81,0,0,1,.57-1.87,10.15,10.15,0,0,1,.92-1.72,9.57,9.57,0,0,1,1.24-1.52,10.21,10.21,0,0,1,1.52-1.25,9.83,9.83,0,0,1,1.73-.91,10.13,10.13,0,0,1,1.87-.58,9.85,9.85,0,0,1,3.9,0,10.47,10.47,0,0,1,1.88.58,10.1,10.1,0,0,1,1.72.91,10,10,0,0,1,3.69,4.49,10.58,10.58,0,0,1,.57,1.87,10,10,0,0,1,.19,2,9.84,9.84,0,0,1-.19,2,10.13,10.13,0,0,1-.58,1.87,9.87,9.87,0,0,1-.92,1.73A9.72,9.72,0,0,1,93.24,240a9.87,9.87,0,0,1-1.73.92,9.39,9.39,0,0,1-1.87.57A9.85,9.85,0,0,1,87.69,241.73Z"/><path class="cls-2" d="M462.28,296.75H240.55c-20.8,0-37.72-14.45-37.72-32.2v-111c0-17.75,16.92-32.2,37.72-32.2H462.28c20.8,0,37.72,14.45,37.72,32.2v111C500,282.3,483.08,296.75,462.28,296.75ZM240.55,141.36c-9.6,0-17.72,5.59-17.72,12.2v111c0,6.61,8.12,12.2,17.72,12.2H462.28c9.61,0,17.72-5.59,17.72-12.2v-111c0-6.61-8.11-12.2-17.72-12.2Z"/><path class="cls-2" d="M268.27,219.05a10,10,0,0,1-2-.19,10.58,10.58,0,0,1-1.87-.57,10,10,0,0,1-5.41-5.41,10.58,10.58,0,0,1-.57-1.87,10,10,0,0,1-.19-2,9.84,9.84,0,0,1,.19-2,10.1,10.1,0,0,1,.57-1.87,9.87,9.87,0,0,1,.92-1.73A10.21,10.21,0,0,1,261.2,202a9.57,9.57,0,0,1,1.52-1.24,10.15,10.15,0,0,1,1.72-.92,10.58,10.58,0,0,1,1.87-.57,9.9,9.9,0,0,1,3.91,0,10.1,10.1,0,0,1,1.87.57,9.87,9.87,0,0,1,1.73.92,9.72,9.72,0,0,1,2.76,2.76,9.87,9.87,0,0,1,.92,1.73,10.1,10.1,0,0,1,.57,1.87,9.85,9.85,0,0,1,.2,2,10,10,0,0,1-.2,2,10.58,10.58,0,0,1-.57,1.87,10.15,10.15,0,0,1-.92,1.72,9.57,9.57,0,0,1-1.24,1.52,10.21,10.21,0,0,1-1.52,1.25,9.87,9.87,0,0,1-1.73.92,10.1,10.1,0,0,1-1.87.57A9.84,9.84,0,0,1,268.27,219.05Z"/><path class="cls-2" d="M255.07,31.76l3.42-3.42a5,5,0,0,0-7.07-7.07L239.67,33a5,5,0,0,0,0,7.07l11.75,11.75a5,5,0,0,0,7.07-7.07l-2.92-2.92a38.15,38.15,0,0,1,33.59,37.82,5,5,0,0,0,10,0A48.16,48.16,0,0,0,255.07,31.76Z"/></svg>